PathFileType	4	(X/Y/Z)	C:/Users/beibeiliu/ov580/test_trc\sequence.18_training_dense_left.trc
DataRate	CameraRate	NumFrames	NumMarkers	Units	OrigDataRate	OrigDataStartFrame	OrigNumFrames
120	120	8	19	mm	120	169	336
Frame#	Time	ThumbCMC			ThumbMCP			ThumbIP			ThumbTip			IndexMCP			IndexPIP			IndexTip			MiddleMCP			MiddlePIP			MiddleTip			RingMCP			RingPIP			RingTip			PinkyMCP			PinkyPIP			PinkyTip			BackHand1			BackHand2			BackHand3	
		X0	Y0	Z0	X1	Y1	Z1	X2	Y2	Z2	X3	Y3	Z3	X4	Y4	Z4	X5	Y5	Z5	X6	Y6	Z6	X7	Y7	Z7	X8	Y8	Z8	X9	Y9	Z9	X10	Y10	Z10	X11	Y11	Z11	X12	Y12	Z12	X13	Y13	Z13	X14	Y14	Z14	X15	Y15	Z15	X16	Y16	Z16	X17	Y17	Z17	X18	Y18	Z18	
168	1.4	-219.564	-5.74116	31.0322	-212.292	-22.9043	47.6621	-204.428	-45.3316	54.4427	-193.279	-60.403	63.8913	-232.051	-66.5649	8.19608	-241.917	-79.0428	33.0113	-240.951	-53.8274	48.0074	-254.269	-69.0367	6.90123	-260.507	-80.0798	32.4571	-252.87	-48.4592	47.8534	-272.687	-62.6536	9.04605	-269.442	-70.6478	33.1119	-263.684	-50.8031	46.7565	-287.261	-46.7314	13.218	-281.621	-57.7669	36.1496	-267.451	-42.5197	45.2373	-263.662	-9.83056	-1.79856	-260.809	14.1109	4.1564	-233.171	-2.5417	1.60038	
169	1.40833	-217.502	2.68868	32.5915	-212.683	-21.7932	46.0449	-201.226	-39.7711	53.5567	-190.785	-51.0522	62.9591	-226.047	-64.0533	10.5393	-229.84	-76.8981	36.054	-232.274	-51.9887	49.5664	-250.73	-67.4381	9.13879	-248.867	-78.0824	38.7031	-247.855	-50.1855	50.885	-266.334	-60.7659	11.2172	-267.169	-70.8027	38.7186	-259.741	-42.6525	51.1875	-279.963	-52.3753	17.3538	-278.37	-56.9499	41.3288	-264.704	-38.2608	49.1205	-263.24	-12.2344	-0.221368	-261.403	14.426	2.73539	-237.776	-1.75087	1.01503	
170	1.41667	-218.774	4.10955	30.7452	-206.084	-10.3991	48.2043	-195.305	-25.0117	54.7126	-182.355	-43.0086	64.1687	-220.609	-61.7604	13.554	-222.675	-71.5287	37.2438	-228.228	-44.9207	50.678	-243.064	-68.1971	12.8415	-238.905	-74.7609	42.6692	-245.704	-45.7532	51.0463	-261.649	-66.18	18.0647	-255.215	-66.8089	45.0716	-252.977	-43.5833	52.6938	-278.632	-53.9103	21.7404	-268.629	-58.4881	42.8502	-257.584	-33.2486	48.3279	-267.708	-14.1314	2.21965	-268.79	12.2218	4.55948	-240.539	1.70761	2.09682	
171	1.425	-220.747	12.2015	31.5879	-208.979	-5.28156	47.5262	-193.328	-20.8504	53.8621	-180.676	-29.9959	61.6708	-213.229	-55.3366	14.3549	-216.421	-65.2043	36.955	-223.562	-38.892	51.4269	-234.516	-63.2633	14.4146	-231.446	-71.4468	41.0288	-237.48	-38.9187	52.6885	-251.337	-61.2147	19.4752	-248.147	-65.3869	44.8695	-247.726	-35.079	54.2707	-271.391	-53.4736	24.1262	-260.181	-55.0204	48.205	-253.185	-32.5777	50.7824	-265.55	-17.8428	2.29829	-270.271	14.3039	6.66389	-238.503	6.06773	5.43697	
172	1.43333	-224.454	16.501	32.1549	-206.531	4.58078	48.2436	-190.492	-11.1366	52.3691	-173.765	-17.427	62.3591	-209.531	-44.836	12.3509	-208.509	-60.2552	36.9875	-214.847	-36.1079	53.0735	-230.692	-57.5645	15.6678	-223.229	-64.9905	43.8856	-233.589	-32.769	52.6559	-243.161	-61.5715	23.6486	-239.626	-58.3298	50.125	-245.437	-33.1751	56.1781	-267.098	-55.3532	28.7983	-254.073	-50.3427	51.629	-251.1	-23.1347	52.2928	-260.935	-16.4334	3.4773	-273.543	8.9644	7.76026	-246.364	7.15104	5.5205	
173	1.44167	-229.885	17.3307	30.2917	-209.73	4.90975	45.3212	-187.382	-1.93709	51.6727	-174.128	-9.97604	58.3767	-208.604	-40.759	11.9566	-202.328	-52.8966	39.6823	-215.755	-33.554	53.3598	-224.821	-54.8191	16.1522	-217.62	-60.1733	45.8858	-227.986	-29.6466	53.6921	-239.715	-56.6725	23.1126	-235.987	-58.94	50.5737	-236.777	-29.673	56.6497	-258.183	-56.9335	30.4211	-247.567	-48.7264	51.8898	-248.743	-22.6312	52.9342	-262.043	-14.6798	3.19526	-273.599	5.00418	9.63437	-243.528	7.72324	4.11418	
174	1.45	-233.038	19.0218	29.8405	-212.085	8.34756	42.4595	-188.795	4.48773	49.2246	-175.364	-5.51261	54.2944	-204.164	-33.8334	10.2292	-199.744	-49.5351	36.4689	-211.589	-28.2552	54.1112	-220.502	-52.8123	15.3055	-213.717	-57.9484	44.9988	-225.704	-34.0468	56.2887	-237.646	-59.719	24.2186	-226.491	-54.7817	49.1068	-235.081	-30.9476	57.6359	-255.095	-58.1781	31.6785	-241.994	-51.0443	50.897	-244.637	-25.1195	53.1901	-264.903	-20.9136	3.033	-278.853	2.46123	9.04173	-248.948	8.28368	4.54503	
175	1.45833	-239.116	23.2448	29.191	-212.486	15.827	41.9827	-193.657	8.11648	47.1455	-174.265	6.20099	54.6126	-206.131	-33.4552	10.1621	-191.692	-44.473	31.1895	-203.865	-26.4359	54.6501	-217.261	-51.5317	12.9767	-207.566	-60.0223	38.676	-221.005	-32.1213	56.4407	-232.717	-57.1909	21.549	-220.655	-55.0348	46.3147	-227.993	-35.0599	58.2311	-251.524	-60.2992	31.5899	-239.268	-53.3609	50.5379	-239.173	-27.3396	55.6355	-266.216	-17.5521	6.34587	-279.053	1.07387	10.1831	-252.929	8.67254	4.77748	
